<svg width="50" height="50" viewBox="0 0 48 48" fill="none" xmlns="http://www.w3.org/2000/svg" aria-hidden="true"><path fill-rule="evenodd" clip-rule="evenodd" d="M13.886 9.114c.751.318 6.001 2.537 6.676 2.83.043.02.093.04.127.006a2.622 2.622 0 012.4-.463c.037.01.081.02.112 0a.193.193 0 00.051-.06l5.17-8.006-1.576-1.575C25.84.84 25.336.336 24.754.152a2.5 2.5 0 00-1.508 0c-.582.184-1.085.687-2.092 1.694l-7.268 7.268zm-.737 15.514l-6.01-8.766 5.614-5.614c.524.229 2.424 1.032 4.132 1.754l.032.013c1.301.55 2.486 1.05 2.858 1.211.037.016.071.031.088.068.01.023.005.052 0 .076a2.503 2.503 0 00.654 2.285c.037.037 0 .09-.034.138l-.001.002-.007.01-.003.005-.006.009-5.7 8.829c-.015.024-.029.046-.053.061-.03.02-.072.011-.107.002a2.84 2.84 0 00-.68-.092c-.204 0-.427.038-.652.078h-.002c-.024.005-.046.009-.067-.006a.263.263 0 01-.056-.063zm22.207-7.483a2.145 2.145 0 00-.637-.483c-.01-.005-.02-.008-.03-.017a.138.138 0 01-.033-.116l.965-5.908 4.532 4.532-4.712 2.005a.105.105 0 01-.042.009c-.009 0-.014 0-.019-.002-.006-.002-.011-.007-.023-.018v-.002zm.977 1.269l4.976-2.105 4.845 4.845c1.007 1.007 1.51 1.51 1.694 2.092.027.086.05.173.067.261l-11.579-4.903-.018-.007c-.047-.02-.1-.041-.1-.089 0-.047.054-.07.1-.088l.015-.006zm11.384 6.648L35.654 19.96c-.04-.017-.09-.036-.128-.017-.014.006-.022.017-.03.028l-.004.006a2.162 2.162 0 01-1.45.83c-.057 0-.068.074-.076.136l-.004.027-1.33 8.158-.003.017c-.007.041-.015.087.013.115.474.362.754.894.819 1.49 0 .058.068.069.13.08h.005l.019.003.013.003 7.065 1.471 5.461-5.46v-.002c.827-.826 1.314-1.313 1.563-1.782zM33.11 32.266l6.326 1.299-8.982 8.983 1.538-9.451.002-.013v-.002l.002-.013a.107.107 0 01.006-.02c.011-.03.044-.044.076-.056l.014-.006c.342-.142.631-.367.87-.646.03-.035.066-.068.112-.076.01-.002.026 0 .036.001zm-4.557 12.182c.36-2.206 1.7-10.377 1.856-11.328a.299.299 0 01.018-.056c.017-.041.032-.08-.003-.098-.631-.25-1.098-.804-1.28-1.445a.251.251 0 01-.005-.024c-.004-.02-.007-.037-.023-.053a.206.206 0 00-.095-.042l-12.402-2.558c-.03-.006-.065-.012-.091.003-.03.016-.047.044-.064.073l-.003.005-.025.043a2.123 2.123 0 01-.096.154l-.012.016c-.013.016-.025.033-.027.053-.003.028.015.052.033.075a.496.496 0 01.013.017L27.54 45.46l1.013-1.013zM15.189 30.24l11.249 16.322c-.746.74-1.186 1.13-1.684 1.287a2.499 2.499 0 01-1.508 0c-.582-.184-1.085-.687-2.092-1.694L9.914 34.913l2.935-4.554a.194.194 0 01.05-.059c.031-.022.077-.012.114 0 .302.093.587.131.891.131.393 0 .766-.078 1.157-.235.033-.013.067-.021.093.002a.242.242 0 01.035.041zm-6.36 3.59l2.814-4.366c.014-.021.025-.042.01-.063a.269.269 0 00-.01-.012l-.006-.008a3.62 3.62 0 01-.163-.23c-.023-.04-.047-.081-.09-.081a.105.105 0 00-.04.008L6.25 31.249l2.58 2.58zm1.701-6.017L5.11 30.11l-3.264-3.263c-.555-.555-.957-.957-1.237-1.303l9.92 2.056.011.003.008.001.018.003c.061.01.13.021.13.078 0 .063-.074.092-.137.116l-.029.012zM.04 23.865l11.185 2.344h.003c.019.005.036.008.052-.002a.2.2 0 00.062-.077 3.43 3.43 0 01.495-.66c.038-.037 0-.087-.034-.133a2717.15 2717.15 0 01-5.78-8.36l-4.177 4.177C.84 22.161.336 22.664.152 23.246a2.5 2.5 0 00-.113.619zm24.396-11.467l5.082-7.88 4.774 4.774-1.15 7.121a.282.282 0 00-.002.02.165.165 0 01-.01.047c-.01.025-.035.03-.061.036a2.287 2.287 0 00-.685.341c-.01.007-.017.015-.025.023-.014.015-.028.03-.05.03a.142.142 0 01-.053-.008l-7.273-3.09-.015-.006c-.046-.019-.1-.041-.1-.088a2.748 2.748 0 00-.372-1.118l-.005-.01-.01-.016c-.036-.057-.074-.118-.045-.176zm.168 2.878c-.04-.017-.089-.03-.123-.004a.2.2 0 00-.042.05 2.536 2.536 0 01-2.113 1.121c-.113 0-.226-.016-.353-.035l-.056-.008c-.06 0-.098.059-.13.111l-.01.015-5.603 8.674-.018.026c-.033.047-.07.101-.033.138.021.021.043.021.064.021.021 0 14.104-6.005 15.184-6.466l.015-.006c.044-.018.093-.039.093-.085v-.192c0-.115.018-.23.037-.329a.132.132 0 000-.07c-.016-.04-.056-.056-.095-.073l-6.817-2.888zm-7.7 11.82c-.05-.166-.1-.338-.107-.34l15.35-6.545s.022 0 .043.022a2.13 2.13 0 00.24.203l.017.01c.032.018.064.037.066.07 0 .012 0 .02-.003.032l-1.315 8.077a.801.801 0 00-.004.026v.006c-.01.064-.019.135-.078.135a2.161 2.161 0 00-1.715 1.058l-.006.01c-.018.029-.034.056-.064.071-.026.013-.06.008-.087.002L17 27.407c-.006 0-.051-.154-.098-.31z" fill="#A3A9AC"></path></svg>